Coordinates
version=1
nRows=11
nColumns=36
inDegrees=yes

Units are S.I. units (second, meters, Newtons, ...)
If the header above contains a line with 'inDegrees', this indicates whether rotational values are in degrees (yes) or radians (no).

endheader
time	pelvis_tilt	pelvis_list	pelvis_rotation	pelvis_tx	pelvis_ty	pelvis_tz	hip_flexion_r	hip_adduction_r	hip_rotation_r	knee_angle_r	knee_angle_r_beta	ankle_angle_r	subtalar_angle_r	mtp_angle_r	hip_flexion_l	hip_adduction_l	hip_rotation_l	knee_angle_l	knee_angle_l_beta	ankle_angle_l	subtalar_angle_l	mtp_angle_l	lumbar_extension	lumbar_bending	lumbar_rotation	arm_flex_r	arm_add_r	arm_rot_r	elbow_flex_r	pro_sup_r	arm_flex_l	arm_add_l	arm_rot_l	elbow_flex_l	pro_sup_l
      1.99333330	     -3.30421395	      1.10782090	      2.22768461	      0.21233716	      0.92861417	     -0.13537465	      4.76633537	     -5.05077184	     -0.84315776	     14.13879771	      0.24676857	      4.46482574	    -19.58974470	     -7.49999987	      5.52923012	      0.02102377	      0.67224660	     10.48397653	      0.18297991	      6.35631236	     -8.64943433	     -7.49999987	     -8.98650903	      1.14120419	     -3.55314515	    -33.40956258	    -14.24585946	    -36.39302334	     43.04853839	     70.46919088	    -29.39523981	    -10.90160898	    -24.34207789	     37.21422300	     70.15396736
      1.99500000	     -3.41602875	      1.14211610	      2.12175898	      0.21168908	      0.92708549	     -0.13468413	      4.65454280	     -5.06330444	     -0.56887388	     13.73330616	      0.23969141	      4.61651054	    -19.36615440	     -7.49999987	      5.46301540	      0.04053370	      0.58403477	     10.16853591	      0.17747443	      6.29645325	     -8.59302041	     -7.49999987	     -8.75732491	      1.01601118	     -3.53876704	    -33.90067798	    -14.48706567	    -36.15332495	     43.44295873	     70.08650530	    -29.60559271	    -10.92992424	    -24.19837359	     36.77973439	     69.39672844
      1.99666670	     -3.72233434	      1.22046683	      2.01406233	      0.21221308	      0.92459951	     -0.13388941	      4.76215927	     -5.12999541	     -0.33787371	     13.40799663	      0.23401369	      4.88828703	    -19.12242264	     -7.49999987	      5.63149074	      0.08268052	      0.44507628	      9.93357764	      0.17337364	      6.26573248	     -8.47953014	     -7.49999987	     -8.28661721	      0.78533886	     -3.47785657	    -34.67083089	    -14.59373412	    -36.10984026	     44.18627645	     69.50060589	    -30.25394736	    -11.00914706	    -24.21585399	     37.13215495	     68.71656492
      1.99833330	     -3.71358282	      1.27305611	      1.90532983	      0.21176693	      0.92501086	     -0.13308116	      4.54668206	     -5.14965252	     -0.13325829	     13.06215803	      0.22797766	      5.13996437	    -18.87896799	     -7.49999987	      5.54648041	      0.09878845	      0.50227993	      9.81559588	      0.17131447	      6.20206888	     -8.61876509	     -7.49999987	     -8.36702302	      0.63768538	     -3.42989999	    -34.98397642	    -14.75099157	    -36.01508727	     44.54864894	     68.90632122	    -30.39784696	    -11.09166140	    -24.35599112	     36.78614609	     67.90890233
      2.00000000	     -3.87903730	      1.32678770	      1.77935670	      0.21163899	      0.92721427	     -0.13301868	      4.48877932	     -5.19370545	      0.03081724	     12.61649816	      0.22019943	      5.37579086	    -18.29410186	     -7.49999987	      5.58432255	      0.11737908	      0.41706983	      9.57598762	      0.16713251	      6.08195627	     -8.52874862	     -7.49999987	     -8.05894842	      0.48866731	     -3.46145503	    -35.15469368	    -14.84881372	    -35.97328323	     44.77212945	     68.60108350	    -30.57356074	    -11.07079790	    -24.60033245	     36.28179623	     67.38697059
      2.00166670	     -4.08254832	      1.37188924	      1.59939856	      0.21070901	      0.92631942	     -0.13136923	      4.51790522	     -5.19636533	      0.28964308	     12.15713039	      0.21218195	      5.48060297	    -17.94901373	     -7.49999987	      5.71309616	      0.11176012	      0.30784894	      9.40604379	      0.16416643	      5.96801784	     -8.59792583	     -7.49999987	     -7.76718082	      0.36455393	     -3.45035129	    -35.28040965	    -15.00068586	    -35.81052207	     45.07919272	     67.98806857	    -30.76622546	    -11.04625872	    -24.88958347	     36.04437517	     66.57370096
      2.00333330	     -4.21650556	      1.41178743	      1.44285012	      0.21012130	      0.92744512	     -0.13168645	      4.48663644	     -5.23791929	      0.33419445	     11.70960893	      0.20437123	      5.58576645	    -17.32312402	     -7.49999987	      5.76059387	      0.11247693	      0.19837591	      9.18974726	      0.16039135	      5.83202110	     -8.57684031	     -7.49999987	     -7.53875926	      0.24528076	     -3.46985046	    -35.22265539	    -15.22803104	    -35.46855551	     45.08608048	     67.45115119	    -30.81508400	    -10.99064068	    -25.15829409	     35.61512980	     65.81996871
      2.00500000	     -4.64179539	      1.45597330	      1.29726387	      0.20928750	      0.92656998	     -0.13180754	      4.84032391	     -5.29875356	      0.47175847	     11.34955212	      0.19808705	      5.51466622	    -17.20517047	     -7.49999987	      6.12652862	      0.15559341	      0.13339359	      8.97568102	      0.15665519	      5.84584636	     -8.62227138	     -7.49999987	     -6.98252302	      0.16078289	     -3.46337248	    -35.46615992	    -15.31344231	    -35.34120806	     45.70932804	     67.12465194	    -31.14004756	    -11.04702111	    -25.17472797	     35.96215268	     65.49694404
      2.00666670	     -4.47663135	      1.45539487	      1.03945992	      0.20851220	      0.93217485	     -0.13055845	      4.47094551	     -5.30432392	      0.16245803	     10.76524999	      0.18788906	      5.62554124	    -15.80278099	     -7.49999987	      5.80433060	      0.08888937	     -0.11113142	      8.60377632	      0.15016422	      5.54217565	     -8.29753141	     -7.49999987	     -7.18550644	      0.08141618	     -3.55501909	    -34.71292104	    -15.78957235	    -34.56690086	     44.66130956	     67.46350265	    -30.30667029	    -11.01259368	    -25.31337412	     33.68289057	     65.40905332
      2.00833330	     -4.50968884	      1.44471207	      0.92165442	      0.20728563	      0.93110593	     -0.12919721	      4.36348689	     -5.26048253	      0.02720062	     10.29593950	      0.17969804	      5.57720193	    -15.13617230	     -7.49999987	      5.81326854	      0.03942625	     -0.25266555	      8.43117226	      0.14715172	      5.37832100	     -8.28432980	     -7.49999987	     -7.20067610	      0.04128129	     -3.65892878	    -34.47729553	    -16.05006572	    -34.03414145	     44.58981637	     67.16741496	    -30.02857371	    -11.15173486	    -25.12705958	     33.12643153	     65.03466201
      2.01000000	     -4.43858775	      1.40960177	      0.71235250	      0.20688968	      0.92910810	     -0.12960220	      4.20044960	     -5.22380330	     -0.29973588	      9.96019341	      0.17383817	      5.83498826	    -14.08126143	     -7.49999987	      5.67202608	     -0.04271079	     -0.51094098	      8.28815585	      0.14465561	      5.41280608	     -7.94336052	     -7.49999987	     -7.32006259	      0.03227984	     -3.68069174	    -34.03347057	    -16.58624498	    -33.23413296	     44.05979946	     66.37222792	    -29.90224879	    -11.16371988	    -25.01743507	     32.53117323	     64.19751168
